<mxfile host="app.diagrams.net" modified="2023-11-23T20:09:53.812Z" agent="Mozilla/5.0 (Macintosh; Intel Mac OS X 10_15_7) AppleWebKit/537.36 (KHTML, like Gecko) Chrome/119.0.0.0 Safari/537.36" etag="5AGvkevbu3YcdGq38HTc" version="22.1.3" type="device">
  <diagram name="Page-1" id="311T-HLpbUXBcEiVuwMt">
    <mxGraphModel dx="1458" dy="694" grid="1" gridSize="10" guides="1" tooltips="1" connect="1" arrows="1" fold="1" page="1" pageScale="1" pageWidth="827" pageHeight="1169" math="0" shadow="0">
      <root>
        <mxCell id="0" />
        <mxCell id="1" parent="0" />
        <mxCell id="uB52UKYUmuGdwrdiqT9i-49" value="" style="html=1;verticalLabelPosition=bottom;align=center;labelBackgroundColor=#ffffff;verticalAlign=top;strokeWidth=2;strokeColor=#000000;shadow=0;dashed=0;shape=mxgraph.ios7.icons.folder;" vertex="1" parent="1">
          <mxGeometry x="120" y="820" width="80" height="60" as="geometry" />
        </mxCell>
        <mxCell id="uB52UKYUmuGdwrdiqT9i-48" value="" style="html=1;verticalLabelPosition=bottom;align=center;labelBackgroundColor=#ffffff;verticalAlign=top;strokeWidth=2;strokeColor=#000000;shadow=0;dashed=0;shape=mxgraph.ios7.icons.folder;" vertex="1" parent="1">
          <mxGeometry x="120" y="583.75" width="80" height="60" as="geometry" />
        </mxCell>
        <mxCell id="uB52UKYUmuGdwrdiqT9i-47" value="" style="html=1;verticalLabelPosition=bottom;align=center;labelBackgroundColor=#ffffff;verticalAlign=top;strokeWidth=2;strokeColor=#000000;shadow=0;dashed=0;shape=mxgraph.ios7.icons.folder;" vertex="1" parent="1">
          <mxGeometry x="120" y="372.5" width="80" height="60" as="geometry" />
        </mxCell>
        <mxCell id="uB52UKYUmuGdwrdiqT9i-32" value="" style="html=1;verticalLabelPosition=bottom;align=center;labelBackgroundColor=#ffffff;verticalAlign=top;strokeWidth=2;strokeColor=#000000;shadow=0;dashed=0;shape=mxgraph.ios7.icons.folder;" vertex="1" parent="1">
          <mxGeometry x="280" y="760" width="320" height="180" as="geometry" />
        </mxCell>
        <mxCell id="uB52UKYUmuGdwrdiqT9i-40" value="" style="html=1;verticalLabelPosition=bottom;align=center;labelBackgroundColor=#ffffff;verticalAlign=top;strokeWidth=2;strokeColor=#000000;shadow=0;dashed=0;shape=mxgraph.ios7.icons.folder;" vertex="1" parent="1">
          <mxGeometry x="295" y="867.5" width="80" height="60" as="geometry" />
        </mxCell>
        <mxCell id="uB52UKYUmuGdwrdiqT9i-15" value="" style="html=1;verticalLabelPosition=bottom;align=center;labelBackgroundColor=#ffffff;verticalAlign=top;strokeWidth=2;strokeColor=#000000;shadow=0;dashed=0;shape=mxgraph.ios7.icons.folder;" vertex="1" parent="1">
          <mxGeometry x="280" y="310" width="320" height="160" as="geometry" />
        </mxCell>
        <mxCell id="uB52UKYUmuGdwrdiqT9i-10" value="" style="html=1;verticalLabelPosition=bottom;align=center;labelBackgroundColor=#ffffff;verticalAlign=top;strokeWidth=2;strokeColor=#000000;shadow=0;dashed=0;shape=mxgraph.ios7.icons.folder;" vertex="1" parent="1">
          <mxGeometry x="280" y="100" width="320" height="140" as="geometry" />
        </mxCell>
        <mxCell id="uB52UKYUmuGdwrdiqT9i-2" value="" style="html=1;verticalLabelPosition=bottom;align=center;labelBackgroundColor=#ffffff;verticalAlign=top;strokeWidth=2;strokeColor=#000000;shadow=0;dashed=0;shape=mxgraph.ios7.icons.folder;" vertex="1" parent="1">
          <mxGeometry x="120" y="140" width="80" height="60" as="geometry" />
        </mxCell>
        <mxCell id="uB52UKYUmuGdwrdiqT9i-3" value="&lt;div style=&quot;font-size: 16px;&quot;&gt;&lt;span style=&quot;background-color: initial;&quot;&gt;&lt;b style=&quot;&quot;&gt;&lt;font face=&quot;Courier New&quot; style=&quot;font-size: 16px;&quot;&gt;ENSF 614 Final Project&lt;/font&gt;&lt;/b&gt;&lt;/span&gt;&lt;/div&gt;&lt;div style=&quot;font-size: 16px;&quot;&gt;&lt;span style=&quot;background-color: initial;&quot;&gt;&lt;b&gt;&lt;font face=&quot;Courier New&quot; style=&quot;font-size: 16px;&quot;&gt;Package Diagram&lt;/font&gt;&lt;/b&gt;&lt;/span&gt;&lt;/div&gt;&lt;div style=&quot;font-size: 16px;&quot;&gt;&lt;span style=&quot;background-color: initial;&quot;&gt;&lt;font face=&quot;Courier New&quot; style=&quot;font-size: 16px;&quot;&gt;Group 4&lt;/font&gt;&lt;/span&gt;&lt;/div&gt;" style="text;html=1;strokeColor=none;fillColor=none;align=left;verticalAlign=middle;whiteSpace=wrap;rounded=0;" vertex="1" parent="1">
          <mxGeometry x="20" y="20" width="310" height="30" as="geometry" />
        </mxCell>
        <mxCell id="uB52UKYUmuGdwrdiqT9i-4" value="" style="html=1;verticalLabelPosition=bottom;align=center;labelBackgroundColor=#ffffff;verticalAlign=top;strokeWidth=2;strokeColor=#000000;shadow=0;dashed=0;shape=mxgraph.ios7.icons.folder;" vertex="1" parent="1">
          <mxGeometry x="300" y="370" width="80" height="60" as="geometry" />
        </mxCell>
        <mxCell id="uB52UKYUmuGdwrdiqT9i-5" value="" style="html=1;verticalLabelPosition=bottom;align=center;labelBackgroundColor=#ffffff;verticalAlign=top;strokeWidth=2;strokeColor=#000000;shadow=0;dashed=0;shape=mxgraph.ios7.icons.folder;" vertex="1" parent="1">
          <mxGeometry x="405" y="370" width="80" height="60" as="geometry" />
        </mxCell>
        <mxCell id="uB52UKYUmuGdwrdiqT9i-6" value="" style="html=1;verticalLabelPosition=bottom;align=center;labelBackgroundColor=#ffffff;verticalAlign=top;strokeWidth=2;strokeColor=#000000;shadow=0;dashed=0;shape=mxgraph.ios7.icons.folder;" vertex="1" parent="1">
          <mxGeometry x="300" y="150" width="80" height="60" as="geometry" />
        </mxCell>
        <mxCell id="uB52UKYUmuGdwrdiqT9i-7" value="" style="html=1;verticalLabelPosition=bottom;align=center;labelBackgroundColor=#ffffff;verticalAlign=top;strokeWidth=2;strokeColor=#000000;shadow=0;dashed=0;shape=mxgraph.ios7.icons.folder;" vertex="1" parent="1">
          <mxGeometry x="400" y="150" width="80" height="60" as="geometry" />
        </mxCell>
        <mxCell id="uB52UKYUmuGdwrdiqT9i-8" value="" style="html=1;verticalLabelPosition=bottom;align=center;labelBackgroundColor=#ffffff;verticalAlign=top;strokeWidth=2;strokeColor=#000000;shadow=0;dashed=0;shape=mxgraph.ios7.icons.folder;" vertex="1" parent="1">
          <mxGeometry x="500" y="150" width="80" height="60" as="geometry" />
        </mxCell>
        <mxCell id="uB52UKYUmuGdwrdiqT9i-9" value="" style="html=1;verticalLabelPosition=bottom;align=center;labelBackgroundColor=#ffffff;verticalAlign=top;strokeWidth=2;strokeColor=#000000;shadow=0;dashed=0;shape=mxgraph.ios7.icons.folder;" vertex="1" parent="1">
          <mxGeometry x="510" y="370" width="80" height="60" as="geometry" />
        </mxCell>
        <mxCell id="uB52UKYUmuGdwrdiqT9i-11" value="&lt;div style=&quot;font-size: 16px;&quot;&gt;&lt;font face=&quot;Courier New&quot;&gt;U/I&amp;nbsp;&lt;/font&gt;&lt;/div&gt;&lt;div style=&quot;font-size: 16px;&quot;&gt;&lt;font face=&quot;Courier New&quot;&gt;Layer&lt;/font&gt;&lt;/div&gt;" style="text;html=1;strokeColor=none;fillColor=none;align=center;verticalAlign=middle;whiteSpace=wrap;rounded=0;" vertex="1" parent="1">
          <mxGeometry x="135" y="160" width="50" height="30" as="geometry" />
        </mxCell>
        <mxCell id="uB52UKYUmuGdwrdiqT9i-12" value="&lt;div style=&quot;&quot;&gt;&lt;font style=&quot;font-size: 10px;&quot; face=&quot;Courier New&quot;&gt;Traveler Interface&lt;/font&gt;&lt;/div&gt;" style="text;html=1;strokeColor=none;fillColor=none;align=center;verticalAlign=middle;whiteSpace=wrap;rounded=0;" vertex="1" parent="1">
          <mxGeometry x="295" y="150" width="90" height="70" as="geometry" />
        </mxCell>
        <mxCell id="uB52UKYUmuGdwrdiqT9i-13" value="&lt;div style=&quot;&quot;&gt;&lt;font style=&quot;font-size: 9px;&quot; face=&quot;Courier New&quot;&gt;Airline Staff Interface&lt;/font&gt;&lt;/div&gt;" style="text;html=1;strokeColor=none;fillColor=none;align=center;verticalAlign=middle;whiteSpace=wrap;rounded=0;" vertex="1" parent="1">
          <mxGeometry x="395" y="150" width="90" height="70" as="geometry" />
        </mxCell>
        <mxCell id="uB52UKYUmuGdwrdiqT9i-14" value="&lt;div style=&quot;&quot;&gt;&lt;font style=&quot;font-size: 9px;&quot; face=&quot;Courier New&quot;&gt;Admin&lt;/font&gt;&lt;/div&gt;&lt;div style=&quot;&quot;&gt;&lt;font style=&quot;font-size: 9px;&quot; face=&quot;Courier New&quot;&gt;Interface&lt;/font&gt;&lt;/div&gt;" style="text;html=1;strokeColor=none;fillColor=none;align=center;verticalAlign=middle;whiteSpace=wrap;rounded=0;" vertex="1" parent="1">
          <mxGeometry x="495" y="150" width="90" height="70" as="geometry" />
        </mxCell>
        <mxCell id="uB52UKYUmuGdwrdiqT9i-16" value="&lt;div style=&quot;&quot;&gt;&lt;font style=&quot;font-size: 9px;&quot; face=&quot;Courier New&quot;&gt;Reservation System&lt;/font&gt;&lt;/div&gt;" style="text;html=1;strokeColor=none;fillColor=none;align=center;verticalAlign=middle;whiteSpace=wrap;rounded=0;" vertex="1" parent="1">
          <mxGeometry x="305" y="380" width="70" height="50" as="geometry" />
        </mxCell>
        <mxCell id="uB52UKYUmuGdwrdiqT9i-17" value="&lt;div style=&quot;&quot;&gt;&lt;font style=&quot;font-size: 9px;&quot; face=&quot;Courier New&quot;&gt;Promotion&lt;/font&gt;&lt;/div&gt;&lt;div style=&quot;&quot;&gt;&lt;font style=&quot;font-size: 9px;&quot; face=&quot;Courier New&quot;&gt;System&lt;/font&gt;&lt;/div&gt;" style="text;html=1;strokeColor=none;fillColor=none;align=center;verticalAlign=middle;whiteSpace=wrap;rounded=0;" vertex="1" parent="1">
          <mxGeometry x="400" y="365" width="90" height="70" as="geometry" />
        </mxCell>
        <mxCell id="uB52UKYUmuGdwrdiqT9i-18" value="&lt;div style=&quot;&quot;&gt;&lt;font style=&quot;font-size: 9px;&quot; face=&quot;Courier New&quot;&gt;User&lt;/font&gt;&lt;/div&gt;&lt;div style=&quot;&quot;&gt;&lt;font style=&quot;font-size: 9px;&quot; face=&quot;Courier New&quot;&gt;Management&lt;/font&gt;&lt;/div&gt;&lt;div style=&quot;&quot;&gt;&lt;font style=&quot;font-size: 9px;&quot; face=&quot;Courier New&quot;&gt;System&lt;/font&gt;&lt;/div&gt;" style="text;html=1;strokeColor=none;fillColor=none;align=center;verticalAlign=middle;whiteSpace=wrap;rounded=0;" vertex="1" parent="1">
          <mxGeometry x="510" y="367.5" width="80" height="70" as="geometry" />
        </mxCell>
        <mxCell id="uB52UKYUmuGdwrdiqT9i-20" value="&lt;div style=&quot;&quot;&gt;&lt;font style=&quot;font-size: 11px;&quot; face=&quot;Courier New&quot;&gt;Core Application Layer&lt;/font&gt;&lt;/div&gt;" style="text;html=1;strokeColor=none;fillColor=none;align=center;verticalAlign=middle;whiteSpace=wrap;rounded=0;" vertex="1" parent="1">
          <mxGeometry x="115" y="390" width="90" height="30" as="geometry" />
        </mxCell>
        <mxCell id="uB52UKYUmuGdwrdiqT9i-22" value="&lt;div style=&quot;&quot;&gt;&lt;font style=&quot;font-size: 14px;&quot; face=&quot;Courier New&quot;&gt;Business&lt;/font&gt;&lt;/div&gt;&lt;div style=&quot;&quot;&gt;&lt;font style=&quot;font-size: 14px;&quot; face=&quot;Courier New&quot;&gt;Layer&lt;/font&gt;&lt;/div&gt;" style="text;html=1;strokeColor=none;fillColor=none;align=center;verticalAlign=middle;whiteSpace=wrap;rounded=0;" vertex="1" parent="1">
          <mxGeometry x="122.5" y="600" width="75" height="37.5" as="geometry" />
        </mxCell>
        <mxCell id="uB52UKYUmuGdwrdiqT9i-23" value="" style="html=1;verticalLabelPosition=bottom;align=center;labelBackgroundColor=#ffffff;verticalAlign=top;strokeWidth=2;strokeColor=#000000;shadow=0;dashed=0;shape=mxgraph.ios7.icons.folder;" vertex="1" parent="1">
          <mxGeometry x="280" y="520" width="320" height="160" as="geometry" />
        </mxCell>
        <mxCell id="uB52UKYUmuGdwrdiqT9i-24" value="" style="html=1;verticalLabelPosition=bottom;align=center;labelBackgroundColor=#ffffff;verticalAlign=top;strokeWidth=2;strokeColor=#000000;shadow=0;dashed=0;shape=mxgraph.ios7.icons.folder;" vertex="1" parent="1">
          <mxGeometry x="295" y="580" width="80" height="60" as="geometry" />
        </mxCell>
        <mxCell id="uB52UKYUmuGdwrdiqT9i-25" value="" style="html=1;verticalLabelPosition=bottom;align=center;labelBackgroundColor=#ffffff;verticalAlign=top;strokeWidth=2;strokeColor=#000000;shadow=0;dashed=0;shape=mxgraph.ios7.icons.folder;" vertex="1" parent="1">
          <mxGeometry x="400" y="580" width="80" height="60" as="geometry" />
        </mxCell>
        <mxCell id="uB52UKYUmuGdwrdiqT9i-26" value="" style="html=1;verticalLabelPosition=bottom;align=center;labelBackgroundColor=#ffffff;verticalAlign=top;strokeWidth=2;strokeColor=#000000;shadow=0;dashed=0;shape=mxgraph.ios7.icons.folder;" vertex="1" parent="1">
          <mxGeometry x="505" y="580" width="80" height="60" as="geometry" />
        </mxCell>
        <mxCell id="uB52UKYUmuGdwrdiqT9i-27" value="&lt;div style=&quot;&quot;&gt;&lt;font style=&quot;font-size: 9px;&quot; face=&quot;Courier New&quot;&gt;Payment&lt;/font&gt;&lt;/div&gt;&lt;div style=&quot;&quot;&gt;&lt;font style=&quot;font-size: 9px;&quot; face=&quot;Courier New&quot;&gt;System&lt;/font&gt;&lt;/div&gt;" style="text;html=1;strokeColor=none;fillColor=none;align=center;verticalAlign=middle;whiteSpace=wrap;rounded=0;" vertex="1" parent="1">
          <mxGeometry x="300" y="590" width="70" height="50" as="geometry" />
        </mxCell>
        <mxCell id="uB52UKYUmuGdwrdiqT9i-28" value="&lt;div style=&quot;&quot;&gt;&lt;span style=&quot;font-size: 9px; font-family: &amp;quot;Courier New&amp;quot;; background-color: initial;&quot;&gt;Notification&lt;/span&gt;&lt;/div&gt;&lt;div style=&quot;&quot;&gt;&lt;span style=&quot;font-size: 9px; font-family: &amp;quot;Courier New&amp;quot;; background-color: initial;&quot;&gt;System&lt;/span&gt;&lt;br&gt;&lt;/div&gt;" style="text;html=1;strokeColor=none;fillColor=none;align=center;verticalAlign=middle;whiteSpace=wrap;rounded=0;" vertex="1" parent="1">
          <mxGeometry x="407.5" y="587.5" width="65" height="55" as="geometry" />
        </mxCell>
        <mxCell id="uB52UKYUmuGdwrdiqT9i-29" value="&lt;div style=&quot;&quot;&gt;&lt;font size=&quot;1&quot; face=&quot;Courier New&quot;&gt;Email&lt;/font&gt;&lt;/div&gt;&lt;div style=&quot;&quot;&gt;&lt;font size=&quot;1&quot; face=&quot;Courier New&quot;&gt;Service&lt;/font&gt;&lt;/div&gt;" style="text;html=1;strokeColor=none;fillColor=none;align=center;verticalAlign=middle;whiteSpace=wrap;rounded=0;" vertex="1" parent="1">
          <mxGeometry x="517.5" y="590" width="55" height="47.5" as="geometry" />
        </mxCell>
        <mxCell id="uB52UKYUmuGdwrdiqT9i-31" value="&lt;div style=&quot;&quot;&gt;&lt;font face=&quot;Courier New&quot;&gt;&lt;span style=&quot;font-size: 14px;&quot;&gt;Database&lt;/span&gt;&lt;/font&gt;&lt;/div&gt;&lt;div style=&quot;&quot;&gt;&lt;font face=&quot;Courier New&quot;&gt;&lt;span style=&quot;font-size: 14px;&quot;&gt;Layer&lt;/span&gt;&lt;/font&gt;&lt;/div&gt;" style="text;html=1;strokeColor=none;fillColor=none;align=center;verticalAlign=middle;whiteSpace=wrap;rounded=0;" vertex="1" parent="1">
          <mxGeometry x="127.5" y="832.5" width="65" height="47.5" as="geometry" />
        </mxCell>
        <mxCell id="uB52UKYUmuGdwrdiqT9i-33" value="" style="html=1;verticalLabelPosition=bottom;align=center;labelBackgroundColor=#ffffff;verticalAlign=top;strokeWidth=2;strokeColor=#000000;shadow=0;dashed=0;shape=mxgraph.ios7.icons.folder;" vertex="1" parent="1">
          <mxGeometry x="295" y="797.5" width="80" height="60" as="geometry" />
        </mxCell>
        <mxCell id="uB52UKYUmuGdwrdiqT9i-34" value="" style="html=1;verticalLabelPosition=bottom;align=center;labelBackgroundColor=#ffffff;verticalAlign=top;strokeWidth=2;strokeColor=#000000;shadow=0;dashed=0;shape=mxgraph.ios7.icons.folder;" vertex="1" parent="1">
          <mxGeometry x="400" y="797.5" width="80" height="60" as="geometry" />
        </mxCell>
        <mxCell id="uB52UKYUmuGdwrdiqT9i-35" value="" style="html=1;verticalLabelPosition=bottom;align=center;labelBackgroundColor=#ffffff;verticalAlign=top;strokeWidth=2;strokeColor=#000000;shadow=0;dashed=0;shape=mxgraph.ios7.icons.folder;" vertex="1" parent="1">
          <mxGeometry x="505" y="797.5" width="80" height="60" as="geometry" />
        </mxCell>
        <mxCell id="uB52UKYUmuGdwrdiqT9i-36" value="&lt;div style=&quot;&quot;&gt;&lt;font size=&quot;1&quot; face=&quot;Courier New&quot;&gt;User&lt;/font&gt;&lt;/div&gt;&lt;div style=&quot;&quot;&gt;&lt;font size=&quot;1&quot; face=&quot;Courier New&quot;&gt;Database&lt;/font&gt;&lt;/div&gt;" style="text;html=1;strokeColor=none;fillColor=none;align=center;verticalAlign=middle;whiteSpace=wrap;rounded=0;" vertex="1" parent="1">
          <mxGeometry x="300" y="807.5" width="70" height="50" as="geometry" />
        </mxCell>
        <mxCell id="uB52UKYUmuGdwrdiqT9i-37" value="&lt;div style=&quot;&quot;&gt;&lt;font size=&quot;1&quot; face=&quot;Courier New&quot;&gt;Reservation&lt;/font&gt;&lt;/div&gt;&lt;div style=&quot;&quot;&gt;&lt;font size=&quot;1&quot; face=&quot;Courier New&quot;&gt;Database&lt;/font&gt;&lt;/div&gt;" style="text;html=1;strokeColor=none;fillColor=none;align=center;verticalAlign=middle;whiteSpace=wrap;rounded=0;" vertex="1" parent="1">
          <mxGeometry x="407.5" y="800" width="65" height="55" as="geometry" />
        </mxCell>
        <mxCell id="uB52UKYUmuGdwrdiqT9i-38" value="&lt;div style=&quot;&quot;&gt;&lt;font size=&quot;1&quot; face=&quot;Courier New&quot;&gt;Aircraft Database&lt;/font&gt;&lt;/div&gt;" style="text;html=1;strokeColor=none;fillColor=none;align=center;verticalAlign=middle;whiteSpace=wrap;rounded=0;" vertex="1" parent="1">
          <mxGeometry x="517.5" y="807.5" width="55" height="47.5" as="geometry" />
        </mxCell>
        <mxCell id="uB52UKYUmuGdwrdiqT9i-39" value="&lt;div style=&quot;&quot;&gt;&lt;font size=&quot;1&quot; face=&quot;Courier New&quot;&gt;Crew&lt;/font&gt;&lt;/div&gt;&lt;div style=&quot;&quot;&gt;&lt;font size=&quot;1&quot; face=&quot;Courier New&quot;&gt;Database&lt;/font&gt;&lt;/div&gt;" style="text;html=1;strokeColor=none;fillColor=none;align=center;verticalAlign=middle;whiteSpace=wrap;rounded=0;" vertex="1" parent="1">
          <mxGeometry x="300" y="877.5" width="70" height="50" as="geometry" />
        </mxCell>
        <mxCell id="uB52UKYUmuGdwrdiqT9i-41" value="" style="html=1;verticalLabelPosition=bottom;align=center;labelBackgroundColor=#ffffff;verticalAlign=top;strokeWidth=2;strokeColor=#000000;shadow=0;dashed=0;shape=mxgraph.ios7.icons.folder;" vertex="1" parent="1">
          <mxGeometry x="400" y="867.5" width="80" height="60" as="geometry" />
        </mxCell>
        <mxCell id="uB52UKYUmuGdwrdiqT9i-43" value="&lt;div style=&quot;&quot;&gt;&lt;font size=&quot;1&quot; face=&quot;Courier New&quot;&gt;Flight&lt;/font&gt;&lt;/div&gt;&lt;div style=&quot;&quot;&gt;&lt;font size=&quot;1&quot; face=&quot;Courier New&quot;&gt;Database&lt;/font&gt;&lt;/div&gt;" style="text;html=1;strokeColor=none;fillColor=none;align=center;verticalAlign=middle;whiteSpace=wrap;rounded=0;" vertex="1" parent="1">
          <mxGeometry x="405" y="877.5" width="70" height="50" as="geometry" />
        </mxCell>
        <mxCell id="uB52UKYUmuGdwrdiqT9i-50" style="edgeStyle=orthogonalEdgeStyle;rounded=0;orthogonalLoop=1;jettySize=auto;html=1;entryX=-0.004;entryY=0.502;entryDx=0;entryDy=0;entryPerimeter=0;" edge="1" parent="1" source="uB52UKYUmuGdwrdiqT9i-2" target="uB52UKYUmuGdwrdiqT9i-10">
          <mxGeometry relative="1" as="geometry" />
        </mxCell>
        <mxCell id="uB52UKYUmuGdwrdiqT9i-53" style="edgeStyle=orthogonalEdgeStyle;rounded=0;orthogonalLoop=1;jettySize=auto;html=1;entryX=-0.003;entryY=0.581;entryDx=0;entryDy=0;entryPerimeter=0;" edge="1" parent="1" source="uB52UKYUmuGdwrdiqT9i-47" target="uB52UKYUmuGdwrdiqT9i-15">
          <mxGeometry relative="1" as="geometry" />
        </mxCell>
        <mxCell id="uB52UKYUmuGdwrdiqT9i-54" style="edgeStyle=orthogonalEdgeStyle;rounded=0;orthogonalLoop=1;jettySize=auto;html=1;entryX=-0.002;entryY=0.588;entryDx=0;entryDy=0;entryPerimeter=0;" edge="1" parent="1" source="uB52UKYUmuGdwrdiqT9i-48" target="uB52UKYUmuGdwrdiqT9i-23">
          <mxGeometry relative="1" as="geometry" />
        </mxCell>
        <mxCell id="uB52UKYUmuGdwrdiqT9i-55" style="edgeStyle=orthogonalEdgeStyle;rounded=0;orthogonalLoop=1;jettySize=auto;html=1;entryX=0;entryY=0.5;entryDx=0;entryDy=0;entryPerimeter=0;" edge="1" parent="1" source="uB52UKYUmuGdwrdiqT9i-49" target="uB52UKYUmuGdwrdiqT9i-32">
          <mxGeometry relative="1" as="geometry" />
        </mxCell>
        <mxCell id="uB52UKYUmuGdwrdiqT9i-56" style="edgeStyle=orthogonalEdgeStyle;rounded=0;orthogonalLoop=1;jettySize=auto;html=1;" edge="1" parent="1" source="uB52UKYUmuGdwrdiqT9i-10">
          <mxGeometry relative="1" as="geometry">
            <mxPoint x="440" y="320" as="targetPoint" />
          </mxGeometry>
        </mxCell>
        <mxCell id="uB52UKYUmuGdwrdiqT9i-57" style="edgeStyle=orthogonalEdgeStyle;rounded=0;orthogonalLoop=1;jettySize=auto;html=1;entryX=0.501;entryY=0.055;entryDx=0;entryDy=0;entryPerimeter=0;" edge="1" parent="1" source="uB52UKYUmuGdwrdiqT9i-15" target="uB52UKYUmuGdwrdiqT9i-23">
          <mxGeometry relative="1" as="geometry" />
        </mxCell>
        <mxCell id="uB52UKYUmuGdwrdiqT9i-58" style="edgeStyle=orthogonalEdgeStyle;rounded=0;orthogonalLoop=1;jettySize=auto;html=1;entryX=0.499;entryY=0.071;entryDx=0;entryDy=0;entryPerimeter=0;" edge="1" parent="1" source="uB52UKYUmuGdwrdiqT9i-23" target="uB52UKYUmuGdwrdiqT9i-32">
          <mxGeometry relative="1" as="geometry" />
        </mxCell>
      </root>
    </mxGraphModel>
  </diagram>
</mxfile>
